<svg width="313" height="313" viewBox="0 0 313 313" fill="none" xmlns="http://www.w3.org/2000/svg">
<rect width="313" height="313" fill="white"/>
<g opacity="0.3" clip-path="url(#clip0_231_354)">
<path d="M48.7827 37.4947C48.8926 37.4252 48.9711 37.3157 49.0016 37.1893C49.0321 37.0629 49.0121 36.9296 48.946 36.8177C48.8799 36.7058 48.7728 36.624 48.6474 36.5897C48.522 36.5555 48.3882 36.5714 48.2743 36.6341C47.8266 36.8984 47.3077 37.0166 46.7897 36.9722C46.2717 36.9278 45.7805 36.723 45.3843 36.3864C45.2833 36.3005 45.1523 36.2582 45.0201 36.2689C44.8879 36.2796 44.7654 36.3424 44.6795 36.4434C44.5936 36.5445 44.5514 36.6755 44.5621 36.8077C44.5728 36.9399 44.6355 37.0624 44.7366 37.1483C45.2913 37.6196 45.9791 37.9062 46.7043 37.9683C47.4295 38.0304 48.156 37.8648 48.7827 37.4947ZM48.322 27.4983C48.2367 27.3967 48.1146 27.3332 47.9825 27.3217C47.8504 27.3102 47.7191 27.3516 47.6176 27.4369L43.4054 30.9734C42.4561 31.7705 41.8366 32.8917 41.6673 34.1196C41.4979 35.3475 41.7907 36.5945 42.4888 37.6188L39.4063 40.2069L38.1202 38.6752C38.035 38.5737 37.9128 38.5101 37.7807 38.4986C37.6486 38.4871 37.5174 38.5285 37.4158 38.6138C37.3142 38.6991 37.2507 38.8212 37.2392 38.9533C37.2277 39.0854 37.2691 39.2167 37.3544 39.3182L40.5695 43.1475C40.6547 43.2491 40.7768 43.3126 40.9089 43.3241C41.0411 43.3356 41.1723 43.2942 41.2739 43.2089C41.3754 43.1237 41.439 43.0015 41.4505 42.8694C41.462 42.7373 41.4206 42.606 41.3353 42.5045L40.0493 40.9728L43.1318 38.3846C44.0198 39.2495 45.1974 39.7537 46.436 39.7994C47.6747 39.8451 48.8862 39.429 49.8355 38.632L54.0477 35.0954C54.1493 35.0101 54.2128 34.888 54.2243 34.7559C54.2358 34.6238 54.1944 34.4925 54.1091 34.391L48.322 27.4983ZM45.963 30.1318L47.8777 28.5242L53.0218 34.6511L51.1071 36.2586L45.963 30.1318ZM45.1972 30.7748L50.3413 36.9016L49.1925 37.8661C48.38 38.5483 47.3299 38.8797 46.273 38.7876C45.2162 38.6955 44.2392 38.1872 43.557 37.3748C42.8749 36.5623 42.5434 35.5121 42.6356 34.4553C42.7277 33.3984 43.2359 32.4215 44.0484 31.7393L45.1972 30.7748Z" fill="#D29245"/>
</g>
<g opacity="0.3" clip-path="url(#clip1_231_354)">
<path fill-rule="evenodd" clip-rule="evenodd" d="M91.4156 118.892L86.7789 123.896C86.5868 124.104 86.4408 124.35 86.3507 124.618C86.2607 124.886 86.2286 125.171 86.2565 125.452C86.2844 125.734 86.3717 126.006 86.5127 126.252C86.6537 126.497 86.8451 126.71 87.0744 126.876L95.2388 132.777C95.6348 133.064 96.1219 133.195 96.6082 133.147C97.0944 133.099 97.5462 132.874 97.8782 132.515L100.859 129.299C101.19 128.941 101.38 128.473 101.391 127.985C101.402 127.496 101.234 127.021 100.918 126.648L94.41 118.959C94.2271 118.743 94.0004 118.568 93.7449 118.446C93.4894 118.324 93.2109 118.257 92.9279 118.251C92.6448 118.245 92.3636 118.299 92.1029 118.409C91.8422 118.519 91.608 118.684 91.4156 118.892ZM87.4354 124.669C87.4594 124.636 87.4853 124.605 87.5132 124.575L92.1498 119.571C92.2459 119.467 92.363 119.385 92.4932 119.329C92.6235 119.274 92.764 119.247 92.9054 119.25C93.0468 119.253 93.186 119.287 93.3137 119.347C93.4414 119.408 93.5548 119.496 93.6463 119.603L100.154 127.293C100.312 127.48 100.396 127.718 100.391 127.962C100.385 128.206 100.291 128.44 100.125 128.619L97.144 131.836C96.9779 132.015 96.7521 132.128 96.5092 132.152C96.2662 132.176 96.0228 132.11 95.825 131.967L87.6605 126.065C87.4456 125.91 87.3011 125.675 87.2589 125.414C87.2166 125.152 87.2801 124.884 87.4354 124.669Z" fill="#D29245"/>
<path d="M95.8457 129.04C95.8786 129.097 95.9 129.159 95.9087 129.225C95.9174 129.29 95.9131 129.356 95.8962 129.419C95.8621 129.547 95.7785 129.657 95.6637 129.723C95.6069 129.756 95.5441 129.778 95.479 129.786C95.4139 129.795 95.3478 129.791 95.2843 129.774C95.1561 129.74 95.0468 129.656 94.9803 129.541L88.1631 117.772C88.1301 117.715 88.1087 117.652 88.1001 117.587C88.0914 117.522 88.0956 117.456 88.1125 117.392C88.1294 117.329 88.1587 117.269 88.1986 117.217C88.2385 117.165 88.2882 117.121 88.3451 117.088C88.4019 117.055 88.4646 117.034 88.5297 117.025C88.5948 117.017 88.661 117.021 88.7245 117.038C88.7879 117.055 88.8474 117.084 88.8996 117.124C88.9518 117.164 88.9956 117.213 89.0285 117.27L95.8457 129.04Z" fill="#D29245"/>
<path d="M90.0733 128.433C89.9832 128.53 89.8581 128.587 89.7256 128.593C89.5931 128.598 89.464 128.55 89.3667 128.46C89.2694 128.37 89.212 128.244 89.2069 128.112C89.2019 127.979 89.2497 127.85 89.3398 127.753L95.4567 121.151C95.5469 121.054 95.6719 120.997 95.8044 120.992C95.937 120.986 96.066 121.034 96.1633 121.124C96.2606 121.215 96.3181 121.34 96.3231 121.472C96.3282 121.605 96.2804 121.734 96.1903 121.831L90.0733 128.433ZM88.8695 117.939C88.7585 118.008 88.625 118.031 88.4975 118.003C88.37 117.975 88.2586 117.898 88.1871 117.788C88.1157 117.679 88.0898 117.546 88.1151 117.418C88.1404 117.29 88.2148 117.177 88.3224 117.103L91.7746 114.848C91.8855 114.779 92.019 114.756 92.1466 114.785C92.2741 114.813 92.3855 114.89 92.4569 114.999C92.5284 115.109 92.5543 115.241 92.529 115.37C92.5037 115.498 92.4293 115.611 92.3216 115.685L88.8695 117.939Z" fill="#D29245"/>
</g>
<g opacity="0.3">
<path d="M35.192 199.308L32.692 196.808C32.5747 196.691 32.4157 196.625 32.2498 196.625C32.084 196.625 31.9249 196.691 31.8076 196.808C31.6904 196.925 31.6245 197.084 31.6245 197.25C31.6245 197.416 31.6904 197.575 31.8076 197.692L31.9233 197.807L27.6131 201.04L24.6272 201.637C24.5063 201.662 24.3951 201.721 24.3076 201.808L17.7967 208.317C17.4451 208.669 17.2476 209.146 17.2476 209.643C17.2476 210.14 17.4451 210.617 17.7967 210.969L21.0311 214.203C21.3827 214.555 21.8596 214.752 22.3568 214.752C22.8541 214.752 23.331 214.555 23.6826 214.203L30.192 207.695C30.2791 207.607 30.3383 207.496 30.3623 207.375L30.96 204.389L34.1928 200.079L34.3076 200.195C34.3657 200.253 34.4346 200.299 34.5105 200.33C34.5864 200.361 34.6677 200.378 34.7498 200.378C34.8319 200.378 34.9133 200.361 34.9891 200.33C35.065 200.299 35.1339 200.253 35.192 200.195C35.2501 200.136 35.2961 200.068 35.3276 199.992C35.359 199.916 35.3752 199.834 35.3752 199.752C35.3752 199.67 35.359 199.589 35.3276 199.513C35.2961 199.437 35.2501 199.368 35.192 199.31V199.308ZM23.4998 204.384L27.6162 208.5L24.1248 211.991L20.0084 207.875L23.4998 204.384ZM22.3568 213.5C22.2748 213.5 22.1936 213.484 22.1178 213.453C22.0421 213.421 21.9733 213.375 21.9154 213.317L18.6826 210.084C18.5655 209.967 18.4997 209.808 18.4997 209.643C18.4997 209.477 18.5655 209.318 18.6826 209.201L19.1248 208.759L23.2412 212.875L22.7967 213.317C22.68 213.434 22.5218 213.499 22.3568 213.5ZM29.8748 203.75C29.8188 203.825 29.7803 203.911 29.7623 204.002L29.174 206.942L28.4998 207.616L24.3834 203.5L25.0576 202.826L27.9975 202.237C28.089 202.219 28.1753 202.181 28.2498 202.125L32.8162 198.7L33.2998 199.184L29.8748 203.75Z" fill="#D29245"/>
</g>
<g opacity="0.3" clip-path="url(#clip2_231_354)">
<path d="M162.41 220.084C162.356 219.927 162.242 219.798 162.093 219.726C161.944 219.653 161.772 219.642 161.616 219.696C161.459 219.75 161.33 219.864 161.257 220.013C161.185 220.162 161.174 220.334 161.228 220.491L163.127 226.006C163.181 226.163 163.295 226.292 163.444 226.365C163.593 226.437 163.765 226.448 163.921 226.394C164.078 226.34 164.207 226.226 164.28 226.077C164.352 225.928 164.363 225.756 164.309 225.6L162.41 220.084ZM164.774 219.27C164.72 219.113 164.606 218.985 164.457 218.912C164.308 218.839 164.136 218.829 163.98 218.883C163.823 218.937 163.694 219.051 163.621 219.2C163.549 219.349 163.538 219.52 163.592 219.677L165.491 225.193C165.545 225.349 165.659 225.478 165.808 225.551C165.957 225.624 166.129 225.634 166.285 225.58C166.442 225.526 166.571 225.412 166.644 225.263C166.716 225.114 166.727 224.943 166.673 224.786L164.774 219.27ZM167.138 218.456C167.084 218.3 166.97 218.171 166.821 218.098C166.672 218.025 166.5 218.015 166.343 218.069C166.187 218.123 166.058 218.237 165.985 218.386C165.912 218.535 165.902 218.707 165.956 218.863L167.855 224.379C167.909 224.536 168.023 224.665 168.172 224.737C168.321 224.81 168.492 224.82 168.649 224.766C168.806 224.712 168.935 224.598 169.007 224.45C169.08 224.301 169.091 224.129 169.037 223.972L167.138 218.456ZM157.576 217.562C157.342 216.883 157.388 216.138 157.703 215.493C158.018 214.847 158.576 214.353 159.255 214.119L164.771 212.221C165.45 211.987 166.194 212.032 166.84 212.347C167.485 212.662 167.979 213.221 168.213 213.9L168.417 214.491L169.402 214.152C169.738 214.036 170.094 213.988 170.449 214.009C170.804 214.031 171.151 214.123 171.471 214.278C171.79 214.434 172.076 214.652 172.312 214.918C172.547 215.185 172.728 215.495 172.844 215.831L174.336 220.165C174.452 220.501 174.5 220.857 174.478 221.212C174.457 221.567 174.365 221.914 174.209 222.234C174.053 222.553 173.836 222.839 173.57 223.075C173.303 223.311 172.993 223.491 172.657 223.607L171.672 223.946L172.146 225.325C172.308 225.795 172.277 226.311 172.059 226.758C171.841 227.204 171.454 227.546 170.984 227.708L163.892 230.15C163.422 230.312 162.907 230.28 162.46 230.062C162.013 229.844 161.671 229.457 161.509 228.987L157.576 217.562ZM167.642 216.08L159.368 218.928L162.691 228.58C162.803 228.906 163.159 229.08 163.485 228.968L170.577 226.526C170.734 226.472 170.863 226.358 170.935 226.209C171.008 226.061 171.018 225.889 170.965 225.732L167.642 216.08ZM171.265 222.764L172.25 222.425C172.616 222.299 172.916 222.033 173.086 221.686C173.255 221.338 173.28 220.937 173.154 220.572L171.662 216.238C171.536 215.872 171.27 215.571 170.923 215.402C170.575 215.232 170.174 215.208 169.809 215.334L168.824 215.673L171.265 222.764ZM167.031 214.307C166.905 213.941 166.639 213.64 166.292 213.471C165.944 213.301 165.543 213.277 165.178 213.403L159.662 215.301C159.296 215.427 158.996 215.693 158.826 216.041C158.656 216.388 158.632 216.789 158.758 217.155L158.961 217.746L167.235 214.898L167.031 214.307Z" fill="#D29245"/>
</g>
<g opacity="0.3">
<path d="M150 59H156M153 59V55M146.5 47.286C146.5 46.993 146.503 46.93 146.513 46.889C146.534 46.7973 146.58 46.7134 146.647 46.6469C146.713 46.5804 146.797 46.534 146.889 46.513C146.929 46.503 146.993 46.5 147.286 46.5H158.714C159.007 46.5 159.07 46.503 159.111 46.513C159.203 46.5338 159.287 46.5801 159.354 46.6466C159.42 46.7132 159.467 46.7972 159.488 46.889C159.497 46.929 159.5 46.993 159.5 47.286V48C159.5 48.945 159.499 49.369 159.453 49.718C159.295 50.9184 158.745 52.033 157.889 52.8891C157.033 53.7453 155.918 54.295 154.718 54.453C154.368 54.499 153.945 54.5 153 54.5C152.055 54.5 151.631 54.499 151.282 54.453C150.082 54.295 148.967 53.7453 148.111 52.8891C147.255 52.033 146.705 50.9184 146.547 49.718C146.501 49.368 146.5 48.945 146.5 48V47.286Z" stroke="#D29245" stroke-linecap="round"/>
<path d="M152.52 49.863C152.492 49.9875 152.513 50.118 152.578 50.2277C152.643 50.3374 152.748 50.4181 152.871 50.4531C152.993 50.4881 153.125 50.4749 153.238 50.4161C153.351 50.3574 153.438 50.2575 153.48 50.137L152.52 49.863ZM153.481 50.137L155.211 44.081L154.25 43.806L152.52 49.863L153.481 50.137ZM156.097 43.1L160.186 41.464L159.814 40.536L155.725 42.171L156.097 43.1ZM155.211 44.081C155.357 43.571 155.396 43.477 155.456 43.411L154.713 42.741C154.462 43.02 154.369 43.39 154.25 43.806L155.211 44.081ZM155.725 42.171C155.323 42.332 154.965 42.463 154.713 42.741L155.456 43.411C155.516 43.345 155.604 43.297 156.096 43.1L155.725 42.171Z" fill="#D29245"/>
</g>
<g opacity="0.3" clip-path="url(#clip3_231_354)">
<path d="M266.96 47.61C267.308 47.61 267.59 47.3279 267.59 46.98C267.59 46.632 267.308 46.35 266.96 46.35C266.612 46.35 266.33 46.632 266.33 46.98C266.33 47.3279 266.612 47.61 266.96 47.61Z" fill="#D29245"/>
<path d="M267.9 45.86C268.071 45.86 268.21 45.7212 268.21 45.55C268.21 45.3788 268.071 45.24 267.9 45.24C267.729 45.24 267.59 45.3788 267.59 45.55C267.59 45.7212 267.729 45.86 267.9 45.86Z" fill="#D29245"/>
<path fill-rule="evenodd" clip-rule="evenodd" d="M277.15 46V45.91C277.155 45.82 277.155 45.7299 277.15 45.64V45.31C277.095 45.23 277.045 45.1465 277 45.06V44.79C277 44.7 277 44.62 276.92 44.54C276.887 44.4689 276.861 44.3954 276.84 44.32V44.27C276.801 44.196 276.767 44.1191 276.74 44.04C276.711 43.9714 276.677 43.9046 276.64 43.84L276.52 43.61V43.52C276.24 43.0667 275.904 42.6501 275.52 42.28H272.77L273.42 39.84C273.47 39.6695 273.585 39.5257 273.74 39.44C273.82 39.4032 273.907 39.3841 273.995 39.3841C274.083 39.3841 274.17 39.4032 274.25 39.44L276.12 40.15L276.57 38.99L274.7 38C274.454 37.9055 274.191 37.8639 273.928 37.8777C273.664 37.8916 273.407 37.9606 273.172 38.0804C272.937 38.2001 272.73 38.3679 272.565 38.5729C272.399 38.7778 272.278 39.0153 272.21 39.27L271.48 42.05H269.31C269.237 41.2518 268.862 40.5116 268.262 39.9802C267.661 39.4488 266.881 39.1662 266.08 39.19C265.255 39.1629 264.452 39.463 263.847 40.0249C263.242 40.5868 262.884 41.365 262.85 42.19C262.849 42.8001 263.035 43.3959 263.381 43.8979C263.728 44.4 264.219 44.7844 264.79 45C264.795 45.0832 264.795 45.1667 264.79 45.25V45.56C264.785 45.6499 264.785 45.74 264.79 45.83V46.28C264.852 47.8539 265.525 49.3417 266.666 50.4282C267.806 51.5146 269.325 52.1142 270.9 52.1C272.504 52.1512 274.063 51.5641 275.235 50.4674C276.406 49.3707 277.095 47.8539 277.15 46.25V46ZM270.9 50.85C269.627 50.9015 268.386 50.4461 267.449 49.5837C266.512 48.7214 265.955 47.5225 265.9 46.25C265.908 45.1569 266.321 44.1055 267.06 43.3H274.75C275.498 44.1193 275.909 45.1908 275.9 46.3C275.833 47.5636 275.27 48.7498 274.334 49.6015C273.398 50.4532 272.164 50.9017 270.9 50.85ZM264.1 42.23C264.113 41.9808 264.175 41.7366 264.282 41.5114C264.39 41.2863 264.541 41.0847 264.727 40.9183C264.913 40.7519 265.13 40.6239 265.366 40.5418C265.601 40.4597 265.851 40.4251 266.1 40.44C266.573 40.4163 267.038 40.5673 267.407 40.8642C267.775 41.161 268.022 41.583 268.1 42.05H266.53C266.144 42.4176 265.808 42.8345 265.53 43.29C265.532 43.3166 265.532 43.3433 265.53 43.37L265.41 43.6C265.379 43.658 265.353 43.7182 265.33 43.78C264.996 43.67 264.702 43.4646 264.483 43.1891C264.264 42.9137 264.131 42.5802 264.1 42.23Z" fill="#D29245"/>
</g>
<g opacity="0.3">
<path d="M88 260C94.268 260 97 257.363 97 251C97 257.363 99.713 260 106 260C99.713 260 97 262.713 97 269C97 262.713 94.268 260 88 260Z" stroke="#D29245" stroke-linejoin="round"/>
</g>
<g opacity="0.3">
<path d="M231.5 139C234.634 139 236 137.681 236 134.5C236 137.681 237.356 139 240.5 139C237.356 139 236 140.356 236 143.5C236 140.356 234.634 139 231.5 139Z" stroke="#D29245" stroke-linejoin="round"/>
</g>
<g opacity="0.3">
<path d="M258 269C257.563 269.001 257.132 269.097 256.737 269.281C256.341 269.465 255.99 269.734 255.709 270.068C255.428 270.402 255.223 270.793 255.109 271.214C254.995 271.636 254.974 272.077 255.048 272.507C255.121 272.937 255.288 273.346 255.536 273.705C255.784 274.065 256.108 274.365 256.484 274.586C256.861 274.808 257.281 274.944 257.715 274.986C258.15 275.028 258.588 274.975 259 274.83" stroke="#D29245" stroke-linecap="round" stroke-linejoin="round"/>
<path d="M255.264 270.605C254.665 270.317 254.148 269.884 253.759 269.346C253.369 268.808 253.12 268.182 253.033 267.523C252.947 266.865 253.025 266.195 253.262 265.574C253.499 264.954 253.886 264.402 254.39 263.969M254.42 263.888C254.092 263.397 253.948 262.806 254.014 262.22C254.08 261.633 254.351 261.089 254.78 260.683C255.209 260.277 255.767 260.036 256.357 260.003C256.946 259.969 257.528 260.145 258 260.5M258.238 260.565C258.078 260.226 257.997 259.856 258 259.481C258.003 259.106 258.09 258.737 258.255 258.401C258.42 258.064 258.658 257.769 258.952 257.537C259.246 257.305 259.589 257.142 259.954 257.061C260.32 256.979 260.699 256.98 261.064 257.065C261.429 257.149 261.77 257.315 262.063 257.549C262.355 257.783 262.591 258.08 262.753 258.418C262.916 258.756 263 259.125 263 259.5V275C263 275.53 262.789 276.039 262.414 276.414C262.039 276.789 261.53 277 261 277C260.469 277 259.961 276.789 259.586 276.414C259.211 276.039 259 275.53 259 275M263 262C263 262.796 263.316 263.559 263.879 264.121C264.441 264.684 265.204 265 266 265M268 269C268.436 269.001 268.868 269.097 269.263 269.281C269.659 269.465 270.009 269.734 270.291 270.068C270.572 270.402 270.776 270.793 270.891 271.214C271.005 271.636 271.026 272.077 270.952 272.507C270.878 272.937 270.712 273.346 270.464 273.705C270.215 274.065 269.892 274.365 269.515 274.586C269.139 274.808 268.719 274.944 268.285 274.986C267.85 275.028 267.412 274.975 267 274.83" stroke="#D29245" stroke-linecap="round" stroke-linejoin="round"/>
<path d="M270.736 270.605C271.334 270.317 271.852 269.884 272.241 269.346C272.631 268.808 272.88 268.182 272.967 267.523C273.053 266.865 272.975 266.195 272.738 265.574C272.501 264.954 272.113 264.402 271.61 263.969M271.58 263.888C271.908 263.397 272.052 262.806 271.986 262.22C271.92 261.633 271.649 261.089 271.22 260.683C270.791 260.277 270.233 260.036 269.643 260.003C269.054 259.969 268.472 260.145 268 260.5M263 259.5C263 259.125 263.084 258.756 263.247 258.418C263.409 258.08 263.645 257.783 263.937 257.549C264.23 257.315 264.571 257.149 264.936 257.065C265.301 256.98 265.68 256.979 266.046 257.061C266.411 257.142 266.754 257.305 267.048 257.537C267.342 257.769 267.58 258.064 267.745 258.401C267.91 258.737 267.997 259.106 268 259.481C268.003 259.856 267.922 260.226 267.762 260.565M267 275C267 275.53 266.789 276.039 266.414 276.414C266.039 276.789 265.53 277 265 277C264.47 277 263.961 276.789 263.586 276.414C263.211 276.039 263 275.53 263 275" stroke="#D29245" stroke-linecap="round" stroke-linejoin="round"/>
</g>
<defs>
<clipPath id="clip0_231_354">
<rect width="20" height="20" fill="white" transform="translate(46.3169 22) rotate(49.983)"/>
</clipPath>
<clipPath id="clip1_231_354">
<rect width="20" height="20" fill="white" transform="translate(79 125.671) rotate(-47.1829)"/>
</clipPath>
<clipPath id="clip2_231_354">
<rect width="20" height="20" fill="white" transform="translate(153 214.51) rotate(-18.9962)"/>
</clipPath>
<clipPath id="clip3_231_354">
<rect width="16" height="16" fill="white" transform="translate(262 37)"/>
</clipPath>
</defs>
</svg>
